<?xml version="1.0" encoding="UTF-8" standalone="no"?>
<!-- Created with Inkscape (http://www.inkscape.org/) -->

<svg
   width="39.422791mm"
   height="52.550797mm"
   viewBox="0 0 39.422791 52.550797"
   version="1.1"
   id="svg5"
   inkscape:export-filename="bitmap.svg"
   inkscape:export-xdpi="96"
   inkscape:export-ydpi="96"
   xmlns:inkscape="http://www.inkscape.org/namespaces/inkscape"
   xmlns:sodipodi="http://sodipodi.sourceforge.net/DTD/sodipodi-0.dtd"
   xmlns="http://www.w3.org/2000/svg"
   xmlns:svg="http://www.w3.org/2000/svg">
  <sodipodi:namedview
     id="namedview7"
     pagecolor="#ffffff"
     bordercolor="#000000"
     borderopacity="0.25"
     inkscape:showpageshadow="2"
     inkscape:pageopacity="0.0"
     inkscape:pagecheckerboard="0"
     inkscape:deskcolor="#d1d1d1"
     inkscape:document-units="mm"
     showgrid="false"
     inkscape:zoom="3.3638608"
     inkscape:cx="298.46657"
     inkscape:cy="414.25614"
     inkscape:window-width="1440"
     inkscape:window-height="847"
     inkscape:window-x="0"
     inkscape:window-y="25"
     inkscape:window-maximized="1"
     inkscape:current-layer="text113" />
  <defs
     id="defs2" />
  <g
     inkscape:label="Layer 1"
     inkscape:groupmode="layer"
     id="layer1"
     transform="translate(-38.23813,-57.242369)">
    <g
       aria-label="th"
       transform="matrix(1.0016796,0,0,0.99832319,4.8943175,12.013325)"
       id="text113"
       style="font-size:73.8394px;stroke-width:0.92299"
       inkscape:export-filename="logo.svg"
       inkscape:export-xdpi="96"
       inkscape:export-ydpi="96">
      <g
         id="g464"
         transform="matrix(1.1833097,0,0,0.97658713,-11.841877,-0.83919875)"
         style="fill:#cccccc">
        <path
           id="path377"
           style="font-family:'Apple Braille';-inkscape-font-specification:'Apple Braille';fill:#cccccc;stroke-width:0.919688"
           d="m 51.081262,65.026581 c 1.811801,-0.37698 3.639646,-0.0852 5.167462,-0.005 1.793412,0.0945 3.256254,0.49325 4.381615,0.99635 1.125353,0.47913 1.90889,1.62414 2.50748,2.63034 0.57465,0.91035 0.96959,2.1805 1.18508,3.80957 0.2155,1.60512 0.32325,3.33002 0.32325,5.1747 v 22.854819 h 6.75229 V 74.433821 c 0,-4.91115 -1.13721,-8.67193 -3.41187,-11.28322 -2.27465,-2.61127 -5.57902,-3.917377 -9.912836,-3.917377 -2.364102,0 -4.512191,-0.139469 -6.991866,0.444887 z M 42.51426,47.250479 V 59.10116 h -4.375658 v 5.833121 h 4.375658 v 21.92996 c 0,4.996332 1.022249,8.626432 3.066658,10.890772 2.04441,2.264347 5.030861,3.396497 8.958883,3.396497 1.125574,0 2.50638,0.003 3.930574,-0.21823 1.500229,0.007 2.673426,-0.10488 3.890884,-0.44981 l 0.05306,-6.125027 h -0.556882 c -0.505359,0.22152 -1.067077,0.39045 -2.215621,0.50685 -1.148545,0.31996 -2.357216,0.19498 -3.413877,0.19498 -1.814701,0 -3.169676,-0.22164 -4.065541,-0.66467 -0.872894,-0.46763 -1.561923,-1.19396 -2.067282,-2.17847 -0.551302,-1.05833 -0.87298,-2.1905 -0.964864,-3.396512 -0.09188,-1.23063 -0.138049,-2.92886 -0.138049,-5.09476 v -18.79158 h 0.02318 V 59.10116 h -0.02318 V 47.250479 Z" />
      </g>
    </g>
  </g>
</svg>
